<svg width="256" height="256" viewBox="0 0 256 256" fill="none" xmlns="http://www.w3.org/2000/svg">
  <defs>
    <linearGradient id="bg" x1="24" y1="20" x2="236" y2="244" gradientUnits="userSpaceOnUse">
      <stop stop-color="#0B1220" />
      <stop offset="1" stop-color="#0F766E" />
    </linearGradient>
    <linearGradient id="signal" x1="130" y1="72" x2="224" y2="168" gradientUnits="userSpaceOnUse">
      <stop stop-color="#22D3EE" />
      <stop offset="1" stop-color="#14B8A6" />
    </linearGradient>
  </defs>

  <rect x="12" y="12" width="232" height="232" rx="56" fill="url(#bg)" />
  <rect x="20" y="20" width="216" height="216" rx="48" stroke="white" stroke-opacity="0.12" stroke-width="4" />

  <rect x="50" y="48" width="106" height="160" rx="18" fill="white" fill-opacity="0.95" />
  <rect x="64" y="74" width="78" height="14" rx="7" fill="#0F172A" fill-opacity="0.82" />
  <rect x="64" y="100" width="60" height="10" rx="5" fill="#334155" fill-opacity="0.62" />
  <rect x="64" y="118" width="66" height="10" rx="5" fill="#334155" fill-opacity="0.54" />
  <rect x="64" y="136" width="50" height="10" rx="5" fill="#334155" fill-opacity="0.44" />
  <rect x="64" y="160" width="70" height="32" rx="8" fill="#E2E8F0" />

  <path d="M172 90C197.405 90 218 110.595 218 136" stroke="url(#signal)" stroke-width="13" stroke-linecap="round" />
  <path d="M172 114C184.15 114 194 123.85 194 136" stroke="url(#signal)" stroke-width="13" stroke-linecap="round" />
  <circle cx="172" cy="136" r="8" fill="url(#signal)" />

  <path d="M149 188L186 173L176 208L166 198L154 208L149 188Z" fill="#22D3EE" />
</svg>
